<svg aria-hidden="true" style="width:0;height:0;position:absolute;overflow:hidden" xmlns="http://www.w3.org/2000/svg"><defs><symbol id="icon-burger" viewBox="0 0 32 32"><path stroke-linejoin="round" stroke-linecap="round" stroke-width="2" d="M28 13.333H4M28 8H4M28 18.667H4M28 24H4"/></symbol><symbol id="icon-cart" viewBox="0 0 32 32"><path stroke-linejoin="round" stroke-linecap="round" stroke-width="2.667" d="M12 29.333a1.333 1.333 0 1 0 0-2.667 1.333 1.333 0 0 0 0 2.667zM26.667 29.333a1.333 1.333 0 1 0 0-2.667 1.333 1.333 0 0 0 0 2.667z"/><path stroke-linejoin="round" stroke-linecap="round" stroke-width="2.4" d="M1.333 1.333h5.333l3.573 17.853a2.671 2.671 0 0 0 2.666 2.147h12.96a2.667 2.667 0 0 0 2.666-2.147l2.133-11.187H7.997"/></symbol><symbol id="icon-menu" viewBox="0 0 31 32"><path stroke-linecap="round" stroke-linejoin="round" stroke-width="1.939" d="M27.151 13.414H3.878m23.273-5.172H3.878m23.273 10.344H3.878m23.273 5.172H3.878"/></symbol><symbol id="icon-shopping-cart" viewBox="0 0 31 32"><path stroke-linecap="round" stroke-linejoin="round" stroke-width="1.92" d="M6.4 18.56h16.814c1.296 0 1.945 0 2.461-.242a2.554 2.554 0 0 0 1.098-.983c.297-.486.369-1.131.512-2.419l.749-6.739c.044-.394.066-.59.002-.743a.641.641 0 0 0-.282-.315c-.144-.08-.342-.08-.738-.08H5.76M2.56 3.2h1.598c.339 0 .508 0 .641.064a.644.644 0 0 1 .277.26c.073.128.083.297.104.635l1.16 18.56c.021.338.032.507.104.635a.638.638 0 0 0 .277.26c.133.064.302.064.641.064H24.32M9.6 28.16h.013m11.507 0h.013m-10.893 0a.64.64 0 1 1-1.281-.001.64.64 0 0 1 1.281.001zm11.52 0a.64.64 0 1 1-1.281-.001.64.64 0 0 1 1.281.001z"/></symbol><symbol id="icon-menu-light" viewBox="0 0 31 32"><path fill="none" stroke="#fff" stroke-linecap="round" stroke-linejoin="round" stroke-width="1.939" d="M27.151 13.414H3.878m23.273-5.172H3.878m23.273 10.344H3.878m23.273 5.172H3.878" style="stroke:var(--color1,#fff)"/></symbol><symbol id="icon-menu-dark" viewBox="0 0 31 32"><path stroke-linecap="round" stroke-linejoin="round" stroke-width="1.939" d="M27.151 13.414H3.878m23.273-5.172H3.878m23.273 10.344H3.878m23.273 5.172H3.878"/></symbol><symbol id="icon-shopping-cart-light" viewBox="0 0 31 32"><path fill="none" stroke="#fff" stroke-linecap="round" stroke-linejoin="round" stroke-width="1.92" d="M6.4 18.56h16.814c1.296 0 1.945 0 2.461-.242a2.554 2.554 0 0 0 1.098-.983c.297-.486.369-1.131.512-2.419l.749-6.739c.044-.394.066-.59.002-.743a.641.641 0 0 0-.282-.315c-.144-.08-.342-.08-.738-.08H5.76M2.56 3.2h1.598c.339 0 .508 0 .641.064a.644.644 0 0 1 .277.26c.073.128.083.297.104.635l1.16 18.56c.021.338.032.507.104.635a.638.638 0 0 0 .277.26c.133.064.302.064.641.064H24.32M9.6 28.16h.013m11.507 0h.013m-10.893 0a.64.64 0 1 1-1.281-.001.64.64 0 0 1 1.281.001zm11.52 0a.64.64 0 1 1-1.281-.001.64.64 0 0 1 1.281.001z" style="stroke:var(--color1,#fff)"/></symbol><symbol id="icon-shopping-cart-dark" viewBox="0 0 31 32"><path stroke-linecap="round" stroke-linejoin="round" stroke-width="1.92" d="M6.4 18.56h16.814c1.296 0 1.945 0 2.461-.242a2.554 2.554 0 0 0 1.098-.983c.297-.486.369-1.131.512-2.419l.749-6.739c.044-.394.066-.59.002-.743a.641.641 0 0 0-.282-.315c-.144-.08-.342-.08-.738-.08H5.76M2.56 3.2h1.598c.339 0 .508 0 .641.064a.644.644 0 0 1 .277.26c.073.128.083.297.104.635l1.16 18.56c.021.338.032.507.104.635a.638.638 0 0 0 .277.26c.133.064.302.064.641.064H24.32M9.6 28.16h.013m11.507 0h.013m-10.893 0a.64.64 0 1 1-1.281-.001.64.64 0 0 1 1.281.001zm11.52 0a.64.64 0 1 1-1.281-.001.64.64 0 0 1 1.281.001z"/></symbol><symbol id="icon-x-big-light" viewBox="0 0 32 32"><path fill="none" stroke="#f8f8f8" stroke-linecap="round" stroke-linejoin="round" stroke-width="2" d="M24 8 8 24M8 8l16 16" style="stroke:var(--color2,#f8f8f8)"/></symbol><symbol id="icon-x-small-dark" viewBox="0 0 32 32"><path stroke-linecap="round" stroke-linejoin="round" stroke-width="2.88" d="M24 8 8 24M8 8l16 16"/></symbol><symbol id="icon-switch-green" viewBox="0 0 48 32"><path d="M11.294 6.902h16.314a6.275 6.275 0 0 1 .001 12.549H11.295a6.274 6.274 0 0 1 0-12.548z" style="fill:var(--color3,#000)"/><path fill="#f3f3f3" d="M33.506 13.176a5.898 5.898 0 1 1-11.797-.001 5.898 5.898 0 0 1 11.797.001z" style="fill:var(--color4,#f3f3f3)"/></symbol><symbol id="icon-switch-grey" viewBox="0 0 50 32"><path fill="#cecdcd" d="M13.176 6.902H29.49a6.274 6.274 0 0 1 0 12.549H13.176a6.274 6.274 0 0 1 0-12.548z" style="fill:var(--color5,#cecdcd)"/><path fill="#f8f8f8" d="M19.074 13.177a5.898 5.898 0 1 1-11.797-.001 5.898 5.898 0 0 1 11.797.001z" style="fill:var(--color2,#f8f8f8)"/></symbol><symbol id="icon-switch-circle" viewBox="0 0 32 32"><path fill="#f8f8f8" d="M19.456 13.44c0 3.323-2.693 6.016-6.016 6.016s-6.016-2.693-6.016-6.016 2.693-6.016 6.016-6.016 6.016 2.693 6.016 6.016z" style="fill:var(--color2,#f8f8f8)"/></symbol><symbol id="icon-switch-oval-green" viewBox="0 0 49 32"><path d="M11.52 6.4h16.64c3.535 0 6.4 2.865 6.4 6.4s-2.865 6.4-6.4 6.4H11.52c-3.535 0-6.4-2.865-6.4-6.4s2.865-6.4 6.4-6.4z"/></symbol><symbol id="icon-switch-oval-grey" viewBox="0 0 49 32"><path fill="#cecdcd" d="M11.52 6.4h16.64c3.535 0 6.4 2.865 6.4 6.4s-2.865 6.4-6.4 6.4H11.52c-3.535 0-6.4-2.865-6.4-6.4s2.865-6.4 6.4-6.4z" style="fill:var(--color5,#cecdcd)"/></symbol><symbol id="icon-heart" viewBox="0 0 32 32"><path d="M15.991 6.848C13.326 3.731 8.88 2.892 5.542 5.745c-3.34 2.854-3.811 7.625-1.187 11.001 2.182 2.806 8.781 8.724 10.944 10.64.241.214.364.321.503.364a.678.678 0 0 0 .386-.002l-.005.001c.141-.042.262-.15.505-.364 2.163-1.916 8.764-7.834 10.944-10.64 2.623-3.375 2.211-8.177-1.187-11.001-3.398-2.825-7.786-2.016-10.452 1.101z"/></symbol><symbol id="icon-search" viewBox="0 0 32 32"><path d="M28.948 27.054 24 22.147a11.926 11.926 0 0 0 2.639-7.508c0-6.627-5.373-12-12-12s-12 5.373-12 12 5.373 12 12 12c2.852 0 5.472-.995 7.531-2.657l-.023.018 4.907 4.907a1.333 1.333 0 0 0 1.894 0 1.33 1.33 0 0 0-.001-1.853zM14.667 24a9.333 9.333 0 1 1 0-18.666 9.333 9.333 0 1 1 0 18.666z"/></symbol><symbol id="icon-reset" viewBox="0 0 32 32"><path stroke-linejoin="round" stroke-linecap="round" stroke-width="3" d="M24 8 8 24M8 8l16 16"/></symbol><symbol id="icon-slider-left" viewBox="0 0 32 32"><path d="M14.133 16.947c-.244-.241-.395-.576-.395-.947s.151-.705.395-.947l6.12-6.107a1.333 1.333 0 0 0-.94-2.281c-.367 0-.699.148-.94.388l-6.12 6.12c-.723.724-1.17 1.723-1.17 2.827s.447 2.103 1.17 2.827l6.12 6.12a1.334 1.334 0 1 0 1.88-1.894l-6.12-6.107z"/></symbol><symbol id="icon-slider-right" viewBox="0 0 32 32"><path d="M17.867 16.947a1.328 1.328 0 0 0 .001-1.894l-6.12-6.107a1.333 1.333 0 0 1 .94-2.281c.367 0 .699.148.94.388l6.12 6.12c.723.724 1.17 1.723 1.17 2.827s-.447 2.103-1.17 2.827l-6.12 6.12a1.334 1.334 0 1 1-1.88-1.894l6.12-6.107z"/></symbol><symbol id="icon-slider-right-2" viewBox="0 0 34 32"><path d="M5.261 5.261c-.976.922-.054 2.441 3.959 6.4 2.386 2.386 4.339 4.556 4.339 4.881s-1.953 2.495-4.339 4.881c-4.447 4.447-5.315 6.346-2.983 6.671.759.108 2.495-1.302 5.695-4.502 4.393-4.447 4.61-4.719 4.61-7.051s-.217-2.603-4.61-7.051C7.701 5.259 6.183 4.283 5.261 5.259zM20.447 5.261c-.976.922-.054 2.441 3.959 6.4 2.386 2.386 4.339 4.556 4.339 4.881s-1.953 2.495-4.339 4.881c-4.502 4.447-5.315 6.346-2.983 6.671.814.108 2.495-1.302 5.912-4.773 4.773-4.827 4.827-4.936 4.502-7.159-.271-1.898-.922-2.875-4.827-6.78-4.122-4.122-5.641-5.098-6.563-4.122z"/></symbol><symbol id="icon-slider-left-2" viewBox="0 0 34 32"><path d="M6.292 8.678c-4.773 4.827-4.827 4.936-4.502 7.159.271 1.898.976 2.875 4.827 6.78 3.092 3.146 4.827 4.502 5.586 4.393 2.332-.325 1.464-2.224-2.983-6.671-2.386-2.386-4.339-4.556-4.339-4.881s1.953-2.495 4.339-4.881c4.502-4.447 5.315-6.346 2.983-6.671-.814-.108-2.495 1.302-5.912 4.773zM21.478 8.678c-4.773 4.827-4.827 4.936-4.502 7.159.271 1.898.976 2.875 4.827 6.78 3.092 3.146 4.827 4.502 5.586 4.393 2.332-.325 1.464-2.224-2.983-6.671-2.386-2.386-4.339-4.556-4.339-4.881s1.953-2.495 4.339-4.881c4.502-4.447 5.315-6.346 2.983-6.671-.814-.108-2.495 1.302-5.912 4.773z"/></symbol><symbol id="icon-criss-cross" viewBox="0 0 32 32"><path d="M32 3.223 28.777 0 16 12.777 3.223 0 0 3.223 12.777 16 0 28.777 3.223 32 16 19.223 28.777 32 32 28.777 19.223 16 32 3.223z"/><symbol id="icon-facebook-small" viewBox="0 0 32 32"><path d="M19.52 4.64h.96v3.6h-1.2c-.48 0-.96 0-1.2.24s-.24.48-.24 1.04v1.28h2.64v3.04h-2.64v13.2h-4.08V13.76H11.6v-3.04h2.16V9.68c0-1.76.24-3.04.72-3.6.72-1.04 2.16-1.52 4.32-1.52.24.08.48.08.72.08z"/></symbol><symbol id="icon-instagram-small" viewBox="0 0 32 32"><path d="M28.717 10.756a9.264 9.264 0 0 0-.596-3.145 6.547 6.547 0 0 0-3.743-3.737 9.42 9.42 0 0 0-3.108-.596c-1.367-.061-1.801-.078-5.273-.078s-3.916 0-5.274.078a9.418 9.418 0 0 0-3.106.596 6.541 6.541 0 0 0-3.743 3.737 9.288 9.288 0 0 0-.596 3.101c-.061 1.367-.08 1.8-.08 5.265s0 3.909.08 5.265a9.34 9.34 0 0 0 .596 3.104 6.545 6.545 0 0 0 3.744 3.735 9.37 9.37 0 0 0 3.106.639c1.369.061 1.803.079 5.274.079s3.917 0 5.274-.079a9.362 9.362 0 0 0 3.108-.595 6.555 6.555 0 0 0 3.743-3.737 9.346 9.346 0 0 0 .596-3.104c.061-1.365.08-1.798.08-5.265-.003-3.466-.003-3.906-.082-5.264zM15.99 22.531c-3.631 0-6.572-2.936-6.572-6.561s2.941-6.561 6.572-6.561c3.628 0 6.572 2.936 6.572 6.561s-2.944 6.561-6.572 6.561zm6.833-11.835a1.53 1.53 0 1 1 0-3.06 1.53 1.53 0 1 1 0 3.06z"/><path d="M15.992 19.976a4.004 4.004 0 1 0 0-8.009 4.004 4.004 0 0 0 0 8.009z"/></symbol><symbol id="icon-youtube-small" viewBox="0 0 32 32"><path d="M24.24 6c-1.36-.08-4.16-.16-8.4-.16h-.56c-4.08 0-6.8.08-8.16.24-1.84.16-3.12.64-3.84 1.28-.64.56-1.12 1.6-1.28 2.96-.08.88-.16 2.72-.16 5.52v.4c0 2.64.08 4.48.24 5.36.24 1.28.64 2.24 1.44 2.8.8.64 2.16 1.04 4.08 1.2 1.36.08 4.16.16 8.4.16h.56c4.08 0 6.8-.08 8.16-.24 1.84-.16 3.12-.64 3.84-1.28.64-.56 1.12-1.6 1.28-2.96.08-.88.16-2.72.16-5.52v-.4c0-2.64-.08-4.48-.24-5.36-.24-1.28-.64-2.24-1.44-2.8-.8-.64-2.16-1.04-4.08-1.2zm-3.12 9.84-8.8 5.28V10.56l8.8 5.28z"/></symbol><symbol id="fav-icon" viewBox="0 0 38 32"><path fill="#9bb537" style="fill:var(--color1,#9bb537)" d="M7.172 12.69h23.172v17.655H7.172V12.69z"/><path fill="#9bb537" style="fill:var(--color1,#9bb537)" d="M16.552 11.586a8.276 8.276 0 1 1-16.553 0 8.276 8.276 0 0 1 16.553 0z"/><path fill="#9bb537" style="fill:var(--color1,#9bb537)" d="M27.034 8.276a8.276 8.276 0 1 1-16.553 0 8.276 8.276 0 0 1 16.553 0z"/><path fill="#9bb537" style="fill:var(--color1,#9bb537)" d="M37.517 11.586a8.276 8.276 0 1 1-16.553 0 8.276 8.276 0 0 1 16.553 0z"/><path fill="#f8f8f8" style="fill:var(--color2,#f8f8f8)" d="M7.172 29.241h23.172v2.081c0 .374-.324.678-.724.678H7.896c-.4 0-.724-.303-.724-.678v-2.081zm7.173-18.778c0-.599.371-1.084.828-1.084s.828.486.828 1.084v5.005c0 .599-.371 1.084-.828 1.084s-.828-.486-.828-1.084v-5.005zm2.758 0c0-.599.618-1.084 1.379-1.084s1.379.486 1.379 1.084v5.005c0 .599-.618 1.084-1.379 1.084s-1.379-.486-1.379-1.084v-5.005zm3.863 0c0-.599.494-1.084 1.103-1.084s1.103.486 1.103 1.084v5.005c0 .599-.494 1.084-1.103 1.084s-1.103-.486-1.103-1.084v-5.005z"/><path fill="#050505" style="fill:var(--color3,#050505)" d="M28.184 3.131c.263-.029.567-.045.875-.045h.003A8.333 8.333 0 0 1 37 8.832a8.333 8.333 0 0 1-8.816-5.7z"/></symbol></symbol></defs></svg>