<svg aria-hidden="true" style="width:0;height:0;position:absolute;overflow:hidden" xmlns="http://www.w3.org/2000/svg"><defs><symbol id="icon-burger" viewBox="0 0 32 32"><path stroke-linejoin="round" stroke-linecap="round" stroke-width="2" d="M28 13.333H4M28 8H4M28 18.667H4M28 24H4"/></symbol><symbol id="icon-cart" viewBox="0 0 32 32"><path stroke-linejoin="round" stroke-linecap="round" stroke-width="2.667" d="M12 29.333a1.333 1.333 0 1 0 0-2.667 1.333 1.333 0 0 0 0 2.667zM26.667 29.333a1.333 1.333 0 1 0 0-2.667 1.333 1.333 0 0 0 0 2.667z"/><path stroke-linejoin="round" stroke-linecap="round" stroke-width="2.4" d="M1.333 1.333h5.333l3.573 17.853a2.671 2.671 0 0 0 2.666 2.147h12.96a2.667 2.667 0 0 0 2.666-2.147l2.133-11.187H7.997"/></symbol><symbol id="icon-heart" viewBox="0 0 32 32"><path d="M15.991 6.848C13.326 3.731 8.88 2.892 5.542 5.745c-3.34 2.854-3.811 7.625-1.187 11.001 2.182 2.806 8.781 8.724 10.944 10.64.241.214.364.321.503.364a.678.678 0 0 0 .386-.002l-.005.001c.141-.042.262-.15.505-.364 2.163-1.916 8.764-7.834 10.944-10.64 2.623-3.375 2.211-8.177-1.187-11.001-3.398-2.825-7.786-2.016-10.452 1.101z"/></symbol><symbol id="icon-search" viewBox="0 0 32 32"><path d="M28.948 27.054 24 22.147a11.926 11.926 0 0 0 2.639-7.508c0-6.627-5.373-12-12-12s-12 5.373-12 12 5.373 12 12 12c2.852 0 5.472-.995 7.531-2.657l-.023.018 4.907 4.907a1.333 1.333 0 0 0 1.894 0 1.33 1.33 0 0 0-.001-1.853zM14.667 24a9.333 9.333 0 1 1 0-18.666 9.333 9.333 0 1 1 0 18.666z"/></symbol><symbol id="icon-reset" viewBox="0 0 32 32"><path stroke-linejoin="round" stroke-linecap="round" stroke-width="3" d="M24 8 8 24M8 8l16 16"/></symbol><symbol id="icon-slider-left" viewBox="0 0 32 32"><path d="M14.133 16.947c-.244-.241-.395-.576-.395-.947s.151-.705.395-.947l6.12-6.107a1.333 1.333 0 0 0-.94-2.281c-.367 0-.699.148-.94.388l-6.12 6.12c-.723.724-1.17 1.723-1.17 2.827s.447 2.103 1.17 2.827l6.12 6.12a1.334 1.334 0 1 0 1.88-1.894l-6.12-6.107z"/></symbol><symbol id="icon-slider-right" viewBox="0 0 32 32"><path d="M17.867 16.947a1.328 1.328 0 0 0 .001-1.894l-6.12-6.107a1.333 1.333 0 0 1 .94-2.281c.367 0 .699.148.94.388l6.12 6.12c.723.724 1.17 1.723 1.17 2.827s-.447 2.103-1.17 2.827l-6.12 6.12a1.334 1.334 0 1 1-1.88-1.894l6.12-6.107z"/></symbol><symbol id="icon-slider-right-2" viewBox="0 0 34 32"><path d="M5.261 5.261c-.976.922-.054 2.441 3.959 6.4 2.386 2.386 4.339 4.556 4.339 4.881s-1.953 2.495-4.339 4.881c-4.447 4.447-5.315 6.346-2.983 6.671.759.108 2.495-1.302 5.695-4.502 4.393-4.447 4.61-4.719 4.61-7.051s-.217-2.603-4.61-7.051C7.701 5.259 6.183 4.283 5.261 5.259zM20.447 5.261c-.976.922-.054 2.441 3.959 6.4 2.386 2.386 4.339 4.556 4.339 4.881s-1.953 2.495-4.339 4.881c-4.502 4.447-5.315 6.346-2.983 6.671.814.108 2.495-1.302 5.912-4.773 4.773-4.827 4.827-4.936 4.502-7.159-.271-1.898-.922-2.875-4.827-6.78-4.122-4.122-5.641-5.098-6.563-4.122z"/></symbol><symbol id="icon-slider-left-2" viewBox="0 0 34 32"><path d="M6.292 8.678c-4.773 4.827-4.827 4.936-4.502 7.159.271 1.898.976 2.875 4.827 6.78 3.092 3.146 4.827 4.502 5.586 4.393 2.332-.325 1.464-2.224-2.983-6.671-2.386-2.386-4.339-4.556-4.339-4.881s1.953-2.495 4.339-4.881c4.502-4.447 5.315-6.346 2.983-6.671-.814-.108-2.495 1.302-5.912 4.773zM21.478 8.678c-4.773 4.827-4.827 4.936-4.502 7.159.271 1.898.976 2.875 4.827 6.78 3.092 3.146 4.827 4.502 5.586 4.393 2.332-.325 1.464-2.224-2.983-6.671-2.386-2.386-4.339-4.556-4.339-4.881s1.953-2.495 4.339-4.881c4.502-4.447 5.315-6.346 2.983-6.671-.814-.108-2.495 1.302-5.912 4.773z"/></symbol></defs></svg>